Coordinates
version=1
nRows=13
nColumns=34
inDegrees=yes

Units are S.I. units (second, meters, Newtons, ...)
If the header above contains a line with 'inDegrees', this indicates whether rotational values are in degrees (yes) or radians (no).

endheader
time	pelvis_tilt	pelvis_list	pelvis_rotation	pelvis_tx	pelvis_ty	pelvis_tz	hip_flexion_r	hip_adduction_r	hip_rotation_r	knee_angle_r	ankle_angle_r	subtalar_angle_r	mtp_angle_r	hip_flexion_l	hip_adduction_l	hip_rotation_l	knee_angle_l	ankle_angle_l	subtalar_angle_l	mtp_angle_l	lumbar_extension	lumbar_bending	lumbar_rotation	arm_flex_r	arm_add_r	arm_rot_r	elbow_flex_r	pro_sup_r	arm_flex_l	arm_add_l	arm_rot_l	elbow_flex_l	pro_sup_l
      3.50000000	     -8.43381560	      2.82816848	     -3.27773272	      1.84212793	      0.81818192	     -0.21390294	     33.42514672	    -13.73471563	      4.29771996	     52.66086126	     24.62257804	    -12.06829785	      0.00000000	     31.40221104	     -9.74079730	    -13.53508006	     59.39722189	     31.60894199	      2.21578731	      0.00000000	    -14.69437650	      4.63149043	      1.46150371	     36.91536743	     10.59019271	     21.71263510	    117.06385193	     84.63088424	     54.01347284	     -7.04644124	     27.61456983	    109.63799724	     83.80914204
      3.51666670	     -7.90322166	      2.93286889	     -3.10410042	      1.84726123	      0.81616840	     -0.21504100	     33.12755833	    -14.88427220	      3.20642994	     54.51771771	     26.94314074	     -9.08017779	      0.00000000	     30.83683938	     -9.24897507	    -12.78251230	     60.48056457	     32.70527969	      2.17101524	      0.00000000	    -13.80198857	      4.73402477	      1.65706392	     38.95615169	     10.89934074	     19.87654172	    118.61734087	     84.94678938	     56.70534987	     -6.81795349	     26.60456789	    111.06472594	     84.17986683
      3.53333330	     -7.31100831	      3.15565871	     -3.02319641	      1.85169948	      0.81737038	     -0.21579931	     32.47791501	    -16.07482004	      2.10258390	     55.62733263	     28.74919819	     -6.10494938	      0.00000000	     29.85791325	     -8.56436561	    -12.17846187	     60.76230147	     33.20889380	      1.95480043	      0.00000000	    -13.07806899	      4.32308537	      2.41314439	     40.97686031	     10.79205712	     17.42403390	    120.05444086	     85.64873638	     60.06140031	     -6.09590055	     26.71310874	    110.54452187	     85.05916235
      3.55000000	     -6.81821639	      3.14728468	     -2.79771955	      1.85711458	      0.81895403	     -0.21668497	     31.34605621	    -17.00532413	      0.61618403	     55.82214545	     29.87598051	     -3.75064774	      0.00000000	     28.80320865	     -7.97505245	    -11.33874420	     60.50100704	     33.48259485	      1.92290021	      0.00000000	    -12.33437146	      4.05891912	      3.18896285	     43.08727756	     10.92865957	     14.50946267	    121.21555043	     86.20823672	     63.48350505	     -5.18354329	     27.32582042	    109.50443957	     85.91965896
      3.56666670	     -6.36374605	      3.16645791	     -2.60035924	      1.86346976	      0.82216712	     -0.21727541	     29.93358144	    -17.95207609	     -1.14191900	     55.43952763	     30.62601500	     -1.32303629	      0.00000000	     27.45725780	     -7.30376960	    -10.54288482	     59.57692090	     33.39664442	      1.84133501	      0.00000000	    -11.62720975	      3.79262517	      3.51539381	     45.64128840	     11.66920407	     12.40257878	    121.15870805	     86.26263826	     66.46660069	     -4.68469907	     27.85878580	    108.72704098	     86.15434627
      3.58333330	     -5.92354673	      3.31253038	     -2.50174001	      1.87031822	      0.82827367	     -0.21702464	     28.29105402	    -18.81443109	     -2.81171964	     54.51665496	     30.78906531	      0.69637636	      0.00000000	     25.76393800	     -6.57231522	     -9.95748808	     58.00498679	     32.87251209	      1.70804318	      0.00000000	    -11.09862292	      2.86451087	      4.41016903	     47.97755762	     11.71117172	     10.44352323	    121.86913271	     86.46775049	     70.35140882	     -3.29489949	     29.39228992	    106.80617556	     86.48825850
      3.60000000	     -5.66722083	      3.34291294	     -2.28559405	      1.87779233	      0.83659757	     -0.21707262	     26.36342261	    -19.45846260	     -4.77361740	     52.87905385	     30.48396400	      2.56129550	      0.00000000	     24.00250496	     -5.96019909	     -9.24281012	     55.84511753	     31.93288161	      1.52650980	      0.00000000	    -10.38828232	      2.10357067	      4.70349474	     50.36918643	     11.99132906	      9.23665718	    121.83135022	     86.67573994	     73.59266173	     -2.16540968	     30.64563350	    105.25452505	     86.67885036
      3.61666670	     -5.70529522	      3.30554534	     -1.94509775	      1.88581871	      0.84630379	     -0.21851889	     24.35830654	    -19.90663090	     -6.87963217	     50.57887226	     29.38665077	      3.96181528	      0.00000000	     22.34043878	     -5.32831023	     -8.32700945	     53.14222673	     30.61399812	      1.31062907	      0.00000000	     -9.28403026	      1.52244732	      4.66852476	     52.70677196	     12.11412364	      8.43370316	    121.05167805	     86.76041923	     76.43684284	     -1.11999629	     31.31594502	    104.25582584	     86.75110073
      3.63333330	     -5.55446580	      3.47194036	     -1.77536949	      1.89370783	      0.85824805	     -0.22007842	     22.11115954	    -20.30871706	     -8.64486774	     47.87030624	     27.90818595	      5.11268175	      0.00000000	     20.05036433	     -4.51012413	     -7.67494623	     49.59139580	     28.61964424	      1.05894996	      0.00000000	     -8.55793732	      0.64222777	      5.24883200	     55.60443951	     12.41325171	      6.90021801	    120.17935146	     86.81779808	     79.23377355	      0.50220067	     32.26691601	    103.13103455	     86.84741344
      3.65000000	     -5.63820712	      3.65805598	     -1.53385574	      1.90129034	      0.87183236	     -0.22020149	     19.95186503	    -20.53995900	    -10.46485965	     44.74628632	     25.58140121	      5.74204682	      0.00000000	     17.80335788	     -3.68780126	     -6.94214430	     45.42991129	     26.11980536	      1.03138181	      0.00000000	     -7.54772225	     -0.22949319	      6.18871098	     58.96963275	     12.41620009	      4.92695090	    118.63400098	     86.76641315	     81.74845814	      2.46095992	     32.74812227	    102.25601145	     86.94048080
      3.66666670	     -5.74761488	      3.86582955	     -1.18447991	      1.90857572	      0.88598113	     -0.21712362	     17.67959366	    -20.51033747	    -12.39322596	     41.30145699	     22.80345129	      6.06373708	      0.00000000	     15.43698861	     -3.03778849	     -6.23451076	     40.81276563	     23.08740144	      1.17279702	      0.00000000	     -6.62508492	     -1.15302851	      7.45853135	     62.99618590	     12.28588540	      3.07417658	    116.00356587	     86.61751192	     84.34195097	      4.39693223	     33.17099520	    101.13651885	     87.09896396
      3.68333330	     -5.89433646	      4.03016050	     -0.69996832	      1.91613497	      0.89947220	     -0.21182255	     15.30302986	    -20.09822375	    -14.38224972	     37.64867939	     19.79104352	      6.02862522	      0.00000000	     13.05067343	     -2.63729563	     -5.41009890	     35.99030260	     19.71412782	      1.61795722	      0.00000000	     -5.57581058	     -1.90105819	      9.01176479	     67.13978125	     11.78284022	      1.99312090	    111.88057646	     86.45365250	     86.94367515	      5.97826042	     32.94742806	     99.77386104	     87.24391348
      3.70000000	     -5.96589078	      4.11939023	     -0.10539693	      1.92375348	      0.91024394	     -0.20637186	     12.89374599	    -19.35010037	    -16.33152872	     34.08926495	     16.92130848	      5.77716208	      0.00000000	     10.75397901	     -2.57575298	     -4.65944147	     31.47645475	     16.29516896	      2.24866907	      0.00000000	     -4.56624289	     -2.59675819	     10.14834205	     72.56824357	     10.81542225	      1.81305870	    105.54114564	     86.31061759	     90.48319615	      6.83085068	     31.58811814	     97.61866502	     87.34761957
